 <svg  version="1.0" xmlns="http://www.w3.org/2000/svg"  width="300.000000pt" height="300.000000pt" viewBox="0 0 300.000000 300.000000"  preserveAspectRatio="xMidYMid meet">  <g transform="translate(0.000000,300.000000) scale(0.100000,-0.100000)" fill="#3e3c5d" stroke="none"> <path d="M1091 2417 c-12 -35 -15 -37 -54 -37 l-42 -1 29 -23 c26 -22 28 -28 22 -65 l-6 -41 32 20 c32 19 33 19 66 0 l34 -20 -7 40 c-6 35 -4 42 22 64 l28 25 -37 1 c-33 0 -40 4 -56 37 l-19 37 -12 -37z"/> <path d="M907 2218 c-4 -14 -18 -28 -34 -34 l-28 -11 28 -8 c17 -4 29 -16 33 -31 3 -13 10 -24 14 -24 4 0 11 11 14 24 4 15 16 26 33 31 26 6 27 7 8 17 -11 6 -30 21 -41 35 l-21 25 -6 -24z"/> <path d="M1275 2207 c-6 -22 -13 -27 -36 -27 -34 0 -36 -6 -8 -29 17 -14 19 -21 10 -44 -12 -30 -5 -34 25 -12 19 12 24 12 40 0 28 -21 34 -18 28 15 -5 24 -1 34 17 50 l24 19 -32 1 c-18 0 -33 4 -33 8 0 5 -6 17 -14 28 -14 18 -15 18 -21 -9z"/> <path d="M291 2171 c-13 -3 -34 -19 -45 -34 -21 -28 -21 -36 -21 -583 l0 -554 28 -27 c27 -27 30 -28 162 -31 l135 -4 0 -49 c0 -27 7 -67 16 -89 l17 -41 27 48 c16 26 45 67 65 91 l37 42 324 0 c349 0 368 2 396 53 10 17 14 129 16 471 2 247 1 460 -3 473 -3 13 -14 32 -25 43 -18 18 -34 20 -146 20 -121 0 -125 -1 -119 -20 4 -14 -1 -27 -18 -42 -13 -13 -29 -33 -36 -45 -17 -33 -59 -31 -72 4 -5 15 -19 33 -30 41 -14 10 -19 22 -16 38 4 24 4 24 -89 24 l-94 0 -43 57 c-23 31 -56 72 -73 90 l-32 33 -168 -1 c-93 -1 -180 -4 -193 -8z m209 -279 c87 -41 166 -114 204 -189 24 -49 25 -51 7 -68 -11 -9 -29 -39 -41 -66 -18 -43 -24 -49 -43 -43 -86 26 -178 104 -225 192 -32 59 -62 157 -62 199 0 22 3 23 43 17 23 -3 76 -22 117 -42z m820 20 c0 -36 -31 -137 -58 -186 -39 -72 -115 -151 -174 -180 -29 -14 -57 -26 -62 -26 -6 0 -19 20 -29 44 -10 24 -27 52 -38 62 -10 9 -19 24 -19 32 0 26 60 110 114 158 95 86 266 148 266 96z m-417 -63 c59 -63 17 -169 -68 -169 -47 0 -71 13 -90 50 -31 60 -11 120 49 145 41 18 75 10 109 -26z m2 -241 c29 -28 37 -45 50 -107 18 -89 44 -149 86 -202 17 -21 27 -39 24 -39 -18 0 -77 45 -108 81 l-34 39 -7 -67 c-13 -124 -62 -205 -182 -298 -45 -36 -94 -80 -108 -97 -25 -33 -26 -33 -26 -8 0 14 11 49 25 78 14 30 25 55 25 57 0 2 -15 -1 -32 -6 -39 -11 -128 -12 -128 -1 1 4 23 18 51 31 123 57 228 200 237 321 6 86 -1 91 -32 25 -29 -65 -74 -118 -120 -142 l-28 -15 25 34 c40 53 57 95 82 195 30 122 55 151 133 152 23 1 42 -8 67 -31z m-261 -155 c-20 -84 -63 -145 -121 -169 -61 -26 -68 -12 -29 64 47 92 167 175 150 105z m448 -6 c44 -33 120 -158 105 -173 -3 -4 -27 1 -52 10 -48 19 -91 70 -113 135 -25 71 -8 79 60 28z"/> <path d="M1061 2033 c-1 -13 -10 -32 -22 -44 l-21 -21 21 -14 c12 -9 21 -23 21 -32 1 -14 2 -14 12 3 6 11 18 26 27 33 14 11 14 14 1 22 -8 5 -20 24 -27 42 -9 27 -12 29 -12 11z"/> <path d="M2050 1645 l0 -165 30 0 30 0 0 165 0 165 -30 0 -30 0 0 -165z"/> <path d="M2310 1751 l0 -59 -29 14 c-44 22 -96 -2 -117 -53 -42 -100 37 -216 117 -171 16 10 29 13 29 8 0 -6 14 -10 30 -10 l30 0 0 165 0 165 -30 0 c-30 0 -30 0 -30 -59z m-12 -103 c7 -7 12 -31 12 -53 0 -82 -69 -100 -91 -25 -10 33 -9 43 5 65 18 27 54 33 74 13z"/> <path d="M1590 1640 l0 -160 30 0 30 0 0 65 0 65 55 0 c52 0 55 1 55 25 0 24 -3 25 -55 25 l-55 0 0 45 0 45 65 0 c63 0 65 1 65 25 0 25 0 25 -95 25 l-95 0 0 -160z"/> <path d="M1862 1708 c-93 -26 -95 -189 -3 -227 94 -40 189 64 148 162 -24 57 -82 83 -145 65z m66 -54 c17 -12 22 -25 22 -59 0 -71 -52 -101 -86 -50 -20 31 -13 94 13 112 21 16 24 16 51 -3z"/> <path d="M2493 1713 c-32 -6 -72 -51 -79 -90 -10 -52 11 -110 49 -134 42 -26 101 -20 135 14 24 25 24 25 4 36 -15 8 -23 7 -32 -4 -19 -23 -66 -19 -84 7 -9 12 -16 26 -16 30 0 5 36 8 80 8 87 0 87 0 69 63 -14 51 -66 81 -126 70z m61 -59 c26 -25 19 -34 -29 -34 -46 0 -58 13 -33 38 17 17 44 15 62 -4z"/> <path d="M2660 1595 l0 -115 30 0 30 0 0 63 c0 72 18 107 56 107 20 0 24 5 24 30 0 35 -21 40 -58 14 -20 -14 -22 -14 -22 0 0 11 -10 16 -30 16 l-30 0 0 -115z"/> <path d="M2061 1366 c-19 -23 -4 -56 25 -56 28 0 42 25 27 49 -14 22 -37 25 -52 7z"/> <path d="M1590 1200 l0 -160 30 0 30 0 0 65 0 65 55 0 c52 0 55 1 55 25 0 24 -3 25 -55 25 l-55 0 0 45 0 45 65 0 c63 0 65 1 65 25 0 25 0 25 -95 25 l-95 0 0 -160z"/> <path d="M1853 1270 c-18 -8 -43 -38 -43 -53 0 -3 11 -7 25 -9 14 -3 25 -1 25 4 0 4 12 14 26 20 23 11 29 10 45 -11 27 -33 24 -41 -16 -41 -86 0 -136 -52 -104 -109 20 -36 61 -46 101 -26 21 10 34 12 36 5 2 -5 15 -10 28 -10 24 0 24 1 24 99 0 96 -1 100 -26 120 -28 22 -82 27 -121 11z m97 -138 c0 -4 -7 -18 -16 -30 -28 -40 -87 -21 -70 23 6 16 86 22 86 7z"/> <path d="M2060 1160 l0 -120 25 0 25 0 0 120 0 120 -25 0 -25 0 0 -120z"/> <path d="M2167 1273 c-4 -3 -7 -57 -7 -120 l0 -113 30 0 30 0 0 65 c0 57 3 69 25 90 13 14 31 25 40 25 10 0 15 10 15 30 0 33 -15 38 -46 15 -25 -19 -34 -19 -34 0 0 15 -40 21 -53 8z"/> <path d="M2330 1273 c0 -4 18 -57 40 -118 22 -60 37 -117 34 -127 -3 -10 -16 -21 -30 -24 -17 -4 -24 -13 -24 -30 0 -20 5 -24 31 -24 49 0 79 42 128 181 24 68 46 130 49 137 3 8 -6 12 -26 12 -29 0 -32 -4 -52 -67 -13 -38 -26 -71 -29 -76 -4 -4 -19 25 -33 65 -23 68 -27 73 -57 76 -17 2 -31 0 -31 -5z"/> </g> </svg> 